<svg width="64" height="64" viewBox="0 0 64 64" fill="none" xmlns="http://www.w3.org/2000/svg">
<g clip-path="url(#clip0_12_2)">
<path d="M63.0429 39.7386C58.7674 56.8906 41.3896 67.3171 24.2621 63.0413C7.1096 58.7658 -3.3169 41.3888 0.958853 24.2616C5.23435 7.1096 22.5869 -3.3169 39.7394 0.958847C56.8669 5.20935 67.3186 22.5863 63.0429 39.7386Z" fill="url(#paint0_linear_12_2)"/>
<path d="M47.2362 28.0125C47.8612 23.7625 44.6362 21.4625 40.1862 19.9375L41.6362 14.1625L38.1362 13.2875L36.7362 18.9125C35.8112 18.6875 34.8612 18.4625 33.9112 18.2625L35.3112 12.6125L31.8112 11.7375L30.3862 17.4875C29.6112 17.3125 28.8612 17.1375 28.1362 16.9625V16.9375L23.2862 15.7375L22.3612 19.4875C22.3612 19.4875 24.9612 20.0875 24.9112 20.1125C26.3362 20.4625 26.5862 21.4125 26.5362 22.1625L24.8862 28.7375C24.9862 28.7625 25.1112 28.7875 25.2612 28.8625C25.1362 28.8375 25.0112 28.8125 24.8862 28.7625L22.5862 37.9625C22.4112 38.3875 21.9612 39.0375 20.9862 38.7875C21.0112 38.8375 18.4362 38.1625 18.4362 38.1625L16.6862 42.1875L21.2612 43.3375C22.1112 43.5625 22.9362 43.7625 23.7612 43.9875L22.3112 49.8125L25.8112 50.6875L27.2612 44.9125C28.2112 45.1625 29.1612 45.4125 30.0612 45.6375L28.6362 51.3875L32.1362 52.2625L33.5862 46.4375C39.5862 47.5625 44.0862 47.1125 45.9612 41.6875C47.4862 37.3375 45.8863 34.8125 42.7362 33.1625C45.0612 32.6375 46.7862 31.1125 47.2362 28.0125V28.0125ZM39.2112 39.2625C38.1362 43.6125 30.7862 41.2625 28.4112 40.6625L30.3362 32.9375C32.7112 33.5375 40.3612 34.7125 39.2112 39.2625ZM40.3112 27.9375C39.3112 31.9125 33.2112 29.8875 31.2362 29.3875L32.9862 22.3875C34.9612 22.8875 41.3362 23.8125 40.3112 27.9375Z" fill="white"/>
</g>
<defs>
<linearGradient id="paint0_linear_12_2" x1="31.9828" y1="-0.0152303" x2="31.9828" y2="63.9937" gradientUnits="userSpaceOnUse">
<stop stop-color="#F9AA4B"/>
<stop offset="1" stop-color="#F7931A"/>
</linearGradient>
<clipPath id="clip0_12_2">
<rect width="64" height="64" fill="white"/>
</clipPath>
</defs>
</svg>
